<mxfile host="app.diagrams.net" agent="Mozilla/5.0 (Windows NT 10.0; Win64; x64) AppleWebKit/537.36 (KHTML, like Gecko) Chrome/131.0.0.0 Safari/537.36 Edg/131.0.0.0" version="25.0.3">
  <diagram name="第 1 页" id="CheH9E8zUCwxqFKvRqXZ">
    <mxGraphModel dx="1427" dy="1304" grid="0" gridSize="10" guides="1" tooltips="1" connect="1" arrows="1" fold="1" page="0" pageScale="1" pageWidth="827" pageHeight="1169" background="#000000" math="0" shadow="0">
      <root>
        <mxCell id="0" />
        <mxCell id="1" parent="0" />
        <mxCell id="E_07Jg-ADx8JuT9kjUOj-2" value="" style="rounded=0;whiteSpace=wrap;html=1;fillColor=#0D0D0D;strokeColor=#FFFFFF;" parent="1" vertex="1">
          <mxGeometry x="144" y="-42" width="569" height="888" as="geometry" />
        </mxCell>
        <mxCell id="E_07Jg-ADx8JuT9kjUOj-3" value="" style="endArrow=none;dashed=1;html=1;rounded=0;exitX=0.001;exitY=0.152;exitDx=0;exitDy=0;exitPerimeter=0;strokeColor=#FFFFFF;" parent="1" edge="1">
          <mxGeometry width="50" height="50" relative="1" as="geometry">
            <mxPoint x="145.99899999999997" y="44.488000000000056" as="sourcePoint" />
            <mxPoint x="715.43" y="44" as="targetPoint" />
            <Array as="points" />
          </mxGeometry>
        </mxCell>
        <mxCell id="E_07Jg-ADx8JuT9kjUOj-5" value="" style="endArrow=none;dashed=1;html=1;rounded=0;exitX=0.002;exitY=0.3;exitDx=0;exitDy=0;exitPerimeter=0;strokeColor=#FFFFFF;" parent="1" edge="1">
          <mxGeometry width="50" height="50" relative="1" as="geometry">
            <mxPoint x="145.99799999999993" y="124.20000000000005" as="sourcePoint" />
            <mxPoint x="712.86" y="124" as="targetPoint" />
          </mxGeometry>
        </mxCell>
        <mxCell id="E_07Jg-ADx8JuT9kjUOj-8" value="前端UI" style="text;html=1;align=center;verticalAlign=middle;resizable=0;points=[];autosize=1;strokeColor=none;fillColor=none;fontColor=#FFFFFF;fontSize=14;" parent="1" vertex="1">
          <mxGeometry x="177" y="-12" width="60" height="29" as="geometry" />
        </mxCell>
        <mxCell id="E_07Jg-ADx8JuT9kjUOj-9" value="" style="rounded=0;whiteSpace=wrap;html=1;fillColor=#006633;" parent="1" vertex="1">
          <mxGeometry x="264" y="-27.5" width="424" height="60" as="geometry" />
        </mxCell>
        <mxCell id="E_07Jg-ADx8JuT9kjUOj-10" value="&lt;font color=&quot;#ffffff&quot;&gt;HTML&lt;/font&gt;" style="rounded=0;whiteSpace=wrap;html=1;fillStyle=auto;fillColor=#663300;fontStyle=1" parent="1" vertex="1">
          <mxGeometry x="307" y="-15.5" width="84" height="36" as="geometry" />
        </mxCell>
        <mxCell id="KxqHd2asEXf90MhezM4M-1" value="&lt;font color=&quot;#ffffff&quot;&gt;CSS&lt;span style=&quot;font-family: monospace; font-size: 0px; text-align: start; text-wrap-mode: nowrap;&quot;&gt;%3CmxGraphModel%3E%3Croot%3E%3CmxCell%20id%3D%220%22%2F%3E%3CmxCell%20id%3D%221%22%20parent%3D%220%22%2F%3E%3CmxCell%20id%3D%222%22%20value%3D%22HTML%22%20style%3D%22rounded%3D0%3BwhiteSpace%3Dwrap%3Bhtml%3D1%3BfillStyle%3Dauto%3BfillColor%3D%23663300%3B%22%20vertex%3D%221%22%20parent%3D%221%22%3E%3CmxGeometry%20x%3D%22300%22%20y%3D%22-15.5%22%20width%3D%2284%22%20height%3D%2236%22%20as%3D%22geometry%22%2F%3E%3C%2FmxCell%3E%3C%2Froot%3E%3C%2FmxGraphModel%3E&lt;/span&gt;&lt;/font&gt;" style="rounded=0;whiteSpace=wrap;html=1;fillStyle=auto;fillColor=#663300;fontStyle=1" vertex="1" parent="1">
          <mxGeometry x="434" y="-15.5" width="84" height="36" as="geometry" />
        </mxCell>
        <mxCell id="KxqHd2asEXf90MhezM4M-2" value="&lt;font color=&quot;#ffffff&quot;&gt;JavaScript&lt;/font&gt;" style="rounded=0;whiteSpace=wrap;html=1;fillStyle=auto;fillColor=#663300;fontStyle=1" vertex="1" parent="1">
          <mxGeometry x="561" y="-15.5" width="84" height="36" as="geometry" />
        </mxCell>
        <mxCell id="KxqHd2asEXf90MhezM4M-3" value="展示层" style="text;html=1;align=center;verticalAlign=middle;resizable=0;points=[];autosize=1;strokeColor=none;fillColor=none;fontColor=#FFFFFF;fontSize=14;" vertex="1" parent="1">
          <mxGeometry x="177" y="71" width="60" height="29" as="geometry" />
        </mxCell>
        <mxCell id="KxqHd2asEXf90MhezM4M-4" value="&lt;font color=&quot;#ffffff&quot;&gt;页面渲染&lt;/font&gt;" style="rounded=0;whiteSpace=wrap;html=1;fillStyle=auto;fillColor=#CC0000;fontStyle=1" vertex="1" parent="1">
          <mxGeometry x="264" y="62" width="96" height="41" as="geometry" />
        </mxCell>
        <mxCell id="KxqHd2asEXf90MhezM4M-11" value="" style="endArrow=none;dashed=1;html=1;rounded=0;exitX=0.002;exitY=0.3;exitDx=0;exitDy=0;exitPerimeter=0;strokeColor=#FFFFFF;" edge="1" parent="1">
          <mxGeometry width="50" height="50" relative="1" as="geometry">
            <mxPoint x="145.99799999999993" y="371.20000000000005" as="sourcePoint" />
            <mxPoint x="712.86" y="371" as="targetPoint" />
          </mxGeometry>
        </mxCell>
        <mxCell id="KxqHd2asEXf90MhezM4M-10" value="" style="group;fontColor=#FFFFFF;" vertex="1" connectable="0" parent="1">
          <mxGeometry x="382" y="58" width="333" height="590" as="geometry" />
        </mxCell>
        <mxCell id="KxqHd2asEXf90MhezM4M-5" value="&lt;font color=&quot;#ffffff&quot;&gt;&lt;b&gt;request&lt;/b&gt;&lt;/font&gt;" style="rounded=0;whiteSpace=wrap;html=1;fillStyle=auto;fillColor=#CC0000;" vertex="1" parent="KxqHd2asEXf90MhezM4M-10">
          <mxGeometry width="239" height="53" as="geometry" />
        </mxCell>
        <mxCell id="KxqHd2asEXf90MhezM4M-7" value="&lt;font color=&quot;#ffffff&quot;&gt;GET&lt;/font&gt;" style="rounded=0;whiteSpace=wrap;html=1;fillStyle=auto;fillColor=#6666FF;" vertex="1" parent="KxqHd2asEXf90MhezM4M-10">
          <mxGeometry x="10" y="8.5" width="84" height="36" as="geometry" />
        </mxCell>
        <mxCell id="KxqHd2asEXf90MhezM4M-9" value="&lt;font color=&quot;#ffffff&quot;&gt;POST&lt;/font&gt;" style="rounded=0;whiteSpace=wrap;html=1;fillStyle=auto;fillColor=#6666FF;" vertex="1" parent="KxqHd2asEXf90MhezM4M-10">
          <mxGeometry x="147" y="8.5" width="84" height="36" as="geometry" />
        </mxCell>
        <mxCell id="KxqHd2asEXf90MhezM4M-56" value="&lt;font color=&quot;#ffffff&quot; style=&quot;font-size: 24px;&quot;&gt;&lt;b&gt;日&lt;/b&gt;&lt;/font&gt;&lt;div&gt;&lt;font color=&quot;#ffffff&quot; style=&quot;font-size: 24px;&quot;&gt;&lt;b&gt;志&lt;/b&gt;&lt;/font&gt;&lt;/div&gt;&lt;div&gt;&lt;font color=&quot;#ffffff&quot; style=&quot;font-size: 24px;&quot;&gt;&lt;b&gt;记&lt;/b&gt;&lt;/font&gt;&lt;/div&gt;&lt;div&gt;&lt;font color=&quot;#ffffff&quot; style=&quot;font-size: 24px;&quot;&gt;&lt;b&gt;录&lt;br&gt;&lt;/b&gt;&lt;/font&gt;&lt;div&gt;&lt;br&gt;&lt;/div&gt;&lt;/div&gt;" style="rounded=0;whiteSpace=wrap;html=1;fillColor=#006633;" vertex="1" parent="KxqHd2asEXf90MhezM4M-10">
          <mxGeometry x="188" y="79" width="58" height="426" as="geometry" />
        </mxCell>
        <mxCell id="KxqHd2asEXf90MhezM4M-12" value="业务逻辑层" style="text;html=1;align=center;verticalAlign=middle;resizable=0;points=[];autosize=1;strokeColor=none;fillColor=none;fontColor=#FFFFFF;fontSize=14;" vertex="1" parent="1">
          <mxGeometry x="163" y="232" width="88" height="29" as="geometry" />
        </mxCell>
        <mxCell id="KxqHd2asEXf90MhezM4M-36" value="数据访问层" style="text;html=1;align=center;verticalAlign=middle;resizable=0;points=[];autosize=1;strokeColor=none;fillColor=none;fontColor=#FFFFFF;fontSize=14;" vertex="1" parent="1">
          <mxGeometry x="163" y="460.5" width="88" height="29" as="geometry" />
        </mxCell>
        <mxCell id="KxqHd2asEXf90MhezM4M-37" value="" style="endArrow=none;dashed=1;html=1;rounded=0;exitX=0.002;exitY=0.3;exitDx=0;exitDy=0;exitPerimeter=0;strokeColor=#FFFFFF;" edge="1" parent="1">
          <mxGeometry width="50" height="50" relative="1" as="geometry">
            <mxPoint x="147.06799999999993" y="585.2" as="sourcePoint" />
            <mxPoint x="713.9300000000001" y="585" as="targetPoint" />
          </mxGeometry>
        </mxCell>
        <mxCell id="KxqHd2asEXf90MhezM4M-38" value="数据库" style="text;html=1;align=center;verticalAlign=middle;resizable=0;points=[];autosize=1;strokeColor=none;fillColor=none;fontColor=#FFFFFF;fontSize=14;" vertex="1" parent="1">
          <mxGeometry x="177" y="639" width="60" height="29" as="geometry" />
        </mxCell>
        <mxCell id="KxqHd2asEXf90MhezM4M-44" value="" style="group" vertex="1" connectable="0" parent="1">
          <mxGeometry x="264" y="608" width="428" height="433" as="geometry" />
        </mxCell>
        <mxCell id="KxqHd2asEXf90MhezM4M-41" value="" style="rounded=0;whiteSpace=wrap;html=1;fillColor=#003366;" vertex="1" parent="KxqHd2asEXf90MhezM4M-44">
          <mxGeometry width="428" height="91" as="geometry" />
        </mxCell>
        <mxCell id="KxqHd2asEXf90MhezM4M-39" value="&lt;font color=&quot;#ffffff&quot;&gt;MySQL&lt;/font&gt;" style="shape=datastore;whiteSpace=wrap;html=1;fillColor=#000000;strokeColor=#FFFFFF;" vertex="1" parent="KxqHd2asEXf90MhezM4M-44">
          <mxGeometry x="45" y="15.5" width="60" height="60" as="geometry" />
        </mxCell>
        <mxCell id="KxqHd2asEXf90MhezM4M-42" value="&lt;font color=&quot;#ffffff&quot;&gt;MySQL&lt;/font&gt;" style="shape=datastore;whiteSpace=wrap;html=1;fillColor=#000000;strokeColor=#FFFFFF;" vertex="1" parent="KxqHd2asEXf90MhezM4M-44">
          <mxGeometry x="180" y="15.5" width="60" height="60" as="geometry" />
        </mxCell>
        <mxCell id="KxqHd2asEXf90MhezM4M-43" value="&lt;font color=&quot;#ffffff&quot;&gt;MySQL&lt;/font&gt;" style="shape=datastore;whiteSpace=wrap;html=1;fillColor=#000000;strokeColor=#FFFFFF;" vertex="1" parent="KxqHd2asEXf90MhezM4M-44">
          <mxGeometry x="323" y="15.5" width="60" height="60" as="geometry" />
        </mxCell>
        <mxCell id="KxqHd2asEXf90MhezM4M-54" value="&lt;font style=&quot;font-size: 14px;&quot; color=&quot;#ffffff&quot;&gt;&lt;b&gt;Phone&lt;/b&gt;&lt;/font&gt;" style="sketch=0;pointerEvents=1;shadow=0;dashed=0;html=1;strokeColor=none;fillColor=#434445;aspect=fixed;labelPosition=center;verticalLabelPosition=bottom;verticalAlign=top;align=center;outlineConnect=0;shape=mxgraph.vvd.phone;" vertex="1" parent="KxqHd2asEXf90MhezM4M-44">
          <mxGeometry x="265" y="126" width="51.02" height="86.47" as="geometry" />
        </mxCell>
        <mxCell id="KxqHd2asEXf90MhezM4M-46" value="" style="group" vertex="1" connectable="0" parent="1">
          <mxGeometry x="264" y="138" width="295" height="217" as="geometry" />
        </mxCell>
        <mxCell id="KxqHd2asEXf90MhezM4M-13" value="" style="rounded=0;whiteSpace=wrap;html=1;fillColor=#001933;" vertex="1" parent="KxqHd2asEXf90MhezM4M-46">
          <mxGeometry width="295" height="217" as="geometry" />
        </mxCell>
        <mxCell id="KxqHd2asEXf90MhezM4M-14" value="&lt;font color=&quot;#ffffff&quot;&gt;&lt;b&gt;实名认证&lt;/b&gt;&lt;/font&gt;" style="rounded=0;whiteSpace=wrap;html=1;fillStyle=auto;fillColor=#663300;" vertex="1" parent="KxqHd2asEXf90MhezM4M-46">
          <mxGeometry x="9" y="12.5" width="84" height="36" as="geometry" />
        </mxCell>
        <mxCell id="KxqHd2asEXf90MhezM4M-15" value="&lt;b&gt;&lt;font color=&quot;#ffffff&quot;&gt;系统日志&lt;/font&gt;&lt;/b&gt;" style="rounded=0;whiteSpace=wrap;html=1;fillStyle=auto;fillColor=#663300;" vertex="1" parent="KxqHd2asEXf90MhezM4M-46">
          <mxGeometry x="9" y="60" width="84" height="36" as="geometry" />
        </mxCell>
        <mxCell id="KxqHd2asEXf90MhezM4M-16" value="&lt;b&gt;&lt;font color=&quot;#ffffff&quot;&gt;数据统计&lt;/font&gt;&lt;/b&gt;" style="rounded=0;whiteSpace=wrap;html=1;fillStyle=auto;fillColor=#663300;" vertex="1" parent="KxqHd2asEXf90MhezM4M-46">
          <mxGeometry x="9" y="111" width="84" height="36" as="geometry" />
        </mxCell>
        <mxCell id="KxqHd2asEXf90MhezM4M-17" value="&lt;b&gt;&lt;font color=&quot;#ffffff&quot;&gt;支付交易&lt;/font&gt;&lt;/b&gt;" style="rounded=0;whiteSpace=wrap;html=1;fillStyle=auto;fillColor=#663300;" vertex="1" parent="KxqHd2asEXf90MhezM4M-46">
          <mxGeometry x="105.5" y="12.5" width="84" height="36" as="geometry" />
        </mxCell>
        <mxCell id="KxqHd2asEXf90MhezM4M-18" value="&lt;b&gt;&lt;font color=&quot;#ffffff&quot;&gt;用户信息管理&lt;/font&gt;&lt;/b&gt;" style="rounded=0;whiteSpace=wrap;html=1;fillStyle=auto;fillColor=#663300;" vertex="1" parent="KxqHd2asEXf90MhezM4M-46">
          <mxGeometry x="105.5" y="60" width="84" height="36" as="geometry" />
        </mxCell>
        <mxCell id="KxqHd2asEXf90MhezM4M-19" value="&lt;b&gt;&lt;font color=&quot;#ffffff&quot;&gt;公告发表&lt;/font&gt;&lt;/b&gt;" style="rounded=0;whiteSpace=wrap;html=1;fillStyle=auto;fillColor=#663300;" vertex="1" parent="KxqHd2asEXf90MhezM4M-46">
          <mxGeometry x="105.5" y="111" width="84" height="36" as="geometry" />
        </mxCell>
        <mxCell id="KxqHd2asEXf90MhezM4M-20" value="&lt;b&gt;&lt;font color=&quot;#ffffff&quot;&gt;平台管理&lt;/font&gt;&lt;/b&gt;" style="rounded=0;whiteSpace=wrap;html=1;fillStyle=auto;fillColor=#663300;" vertex="1" parent="KxqHd2asEXf90MhezM4M-46">
          <mxGeometry x="9" y="159" width="84" height="36" as="geometry" />
        </mxCell>
        <mxCell id="KxqHd2asEXf90MhezM4M-21" value="&lt;b&gt;&lt;font color=&quot;#ffffff&quot;&gt;商品管理&lt;/font&gt;&lt;/b&gt;" style="rounded=0;whiteSpace=wrap;html=1;fillStyle=auto;fillColor=#663300;" vertex="1" parent="KxqHd2asEXf90MhezM4M-46">
          <mxGeometry x="105.5" y="159" width="84" height="36" as="geometry" />
        </mxCell>
        <mxCell id="KxqHd2asEXf90MhezM4M-22" value="&lt;b&gt;&lt;font color=&quot;#ffffff&quot;&gt;文件传递&lt;/font&gt;&lt;/b&gt;" style="rounded=0;whiteSpace=wrap;html=1;fillStyle=auto;fillColor=#663300;" vertex="1" parent="KxqHd2asEXf90MhezM4M-46">
          <mxGeometry x="201" y="37" width="84" height="36" as="geometry" />
        </mxCell>
        <mxCell id="KxqHd2asEXf90MhezM4M-23" value="&lt;b&gt;&lt;font color=&quot;#ffffff&quot;&gt;社区管理&lt;/font&gt;&lt;/b&gt;" style="rounded=0;whiteSpace=wrap;html=1;fillStyle=auto;fillColor=#663300;" vertex="1" parent="KxqHd2asEXf90MhezM4M-46">
          <mxGeometry x="201" y="134" width="84" height="36" as="geometry" />
        </mxCell>
        <mxCell id="KxqHd2asEXf90MhezM4M-47" value="" style="group" vertex="1" connectable="0" parent="1">
          <mxGeometry x="264" y="395" width="295" height="168" as="geometry" />
        </mxCell>
        <mxCell id="KxqHd2asEXf90MhezM4M-25" value="" style="rounded=0;whiteSpace=wrap;html=1;fillColor=#001933;" vertex="1" parent="KxqHd2asEXf90MhezM4M-47">
          <mxGeometry width="295" height="168" as="geometry" />
        </mxCell>
        <mxCell id="KxqHd2asEXf90MhezM4M-26" value="&lt;b&gt;&lt;font color=&quot;#ffffff&quot;&gt;存储过程&lt;/font&gt;&lt;/b&gt;" style="rounded=0;whiteSpace=wrap;html=1;fillStyle=auto;fillColor=#663300;" vertex="1" parent="KxqHd2asEXf90MhezM4M-47">
          <mxGeometry x="9" y="12.5" width="84" height="36" as="geometry" />
        </mxCell>
        <mxCell id="KxqHd2asEXf90MhezM4M-27" value="&lt;b&gt;&lt;font color=&quot;#ffffff&quot;&gt;数据备份&lt;/font&gt;&lt;/b&gt;" style="rounded=0;whiteSpace=wrap;html=1;fillStyle=auto;fillColor=#663300;" vertex="1" parent="KxqHd2asEXf90MhezM4M-47">
          <mxGeometry x="9" y="60" width="84" height="36" as="geometry" />
        </mxCell>
        <mxCell id="KxqHd2asEXf90MhezM4M-28" value="&lt;b&gt;&lt;font color=&quot;#ffffff&quot;&gt;数据恢复&lt;/font&gt;&lt;/b&gt;" style="rounded=0;whiteSpace=wrap;html=1;fillStyle=auto;fillColor=#663300;" vertex="1" parent="KxqHd2asEXf90MhezM4M-47">
          <mxGeometry x="202" y="60" width="84" height="36" as="geometry" />
        </mxCell>
        <mxCell id="KxqHd2asEXf90MhezM4M-29" value="&lt;b&gt;&lt;font color=&quot;#ffffff&quot;&gt;自定义函数&lt;/font&gt;&lt;/b&gt;" style="rounded=0;whiteSpace=wrap;html=1;fillStyle=auto;fillColor=#663300;" vertex="1" parent="KxqHd2asEXf90MhezM4M-47">
          <mxGeometry x="105.5" y="12.5" width="84" height="36" as="geometry" />
        </mxCell>
        <mxCell id="KxqHd2asEXf90MhezM4M-30" value="&lt;b&gt;&lt;font color=&quot;#ffffff&quot;&gt;读写数据库&lt;/font&gt;&lt;/b&gt;" style="rounded=0;whiteSpace=wrap;html=1;fillStyle=auto;fillColor=#663300;" vertex="1" parent="KxqHd2asEXf90MhezM4M-47">
          <mxGeometry x="105.5" y="60" width="84" height="36" as="geometry" />
        </mxCell>
        <mxCell id="KxqHd2asEXf90MhezM4M-31" value="&lt;b&gt;&lt;font color=&quot;#ffffff&quot;&gt;......&lt;/font&gt;&lt;/b&gt;" style="rounded=0;whiteSpace=wrap;html=1;fillStyle=auto;fillColor=#663300;" vertex="1" parent="KxqHd2asEXf90MhezM4M-47">
          <mxGeometry x="105.5" y="111" width="84" height="36" as="geometry" />
        </mxCell>
        <mxCell id="KxqHd2asEXf90MhezM4M-32" value="&lt;b&gt;&lt;font color=&quot;#ffffff&quot;&gt;数据缓存&lt;/font&gt;&lt;/b&gt;" style="rounded=0;whiteSpace=wrap;html=1;fillStyle=auto;fillColor=#663300;" vertex="1" parent="KxqHd2asEXf90MhezM4M-47">
          <mxGeometry x="202" y="12.5" width="84" height="36" as="geometry" />
        </mxCell>
        <mxCell id="KxqHd2asEXf90MhezM4M-48" value="" style="endArrow=none;dashed=1;html=1;rounded=0;exitX=0.002;exitY=0.3;exitDx=0;exitDy=0;exitPerimeter=0;strokeColor=#FFFFFF;" edge="1" parent="1">
          <mxGeometry width="50" height="50" relative="1" as="geometry">
            <mxPoint x="143.99799999999993" y="717.2" as="sourcePoint" />
            <mxPoint x="710.86" y="717" as="targetPoint" />
          </mxGeometry>
        </mxCell>
        <mxCell id="KxqHd2asEXf90MhezM4M-49" value="运行环境" style="text;html=1;align=center;verticalAlign=middle;resizable=0;points=[];autosize=1;strokeColor=none;fillColor=none;fontColor=#FFFFFF;fontSize=14;" vertex="1" parent="1">
          <mxGeometry x="170" y="768" width="74" height="29" as="geometry" />
        </mxCell>
        <mxCell id="KxqHd2asEXf90MhezM4M-50" value="PC" style="image;points=[];aspect=fixed;html=1;align=center;shadow=0;dashed=0;image=img/lib/allied_telesis/computer_and_terminals/Personal_Computer.svg;labelBackgroundColor=#0A0A0A;fontColor=#FFFFFF;fontStyle=1;fontFamily=Helvetica;fontSize=14;" vertex="1" parent="1">
          <mxGeometry x="324.59" y="729" width="66.41" height="90" as="geometry" />
        </mxCell>
        <mxCell id="KxqHd2asEXf90MhezM4M-57" value="&lt;div&gt;&lt;div&gt;&lt;font color=&quot;#ffffff&quot;&gt;&lt;span style=&quot;font-size: 24px;&quot;&gt;&lt;b&gt;数&lt;/b&gt;&lt;/span&gt;&lt;/font&gt;&lt;/div&gt;&lt;div&gt;&lt;font color=&quot;#ffffff&quot;&gt;&lt;span style=&quot;font-size: 24px;&quot;&gt;&lt;b&gt;据&lt;/b&gt;&lt;/span&gt;&lt;/font&gt;&lt;/div&gt;&lt;div&gt;&lt;font color=&quot;#ffffff&quot;&gt;&lt;span style=&quot;font-size: 24px;&quot;&gt;&lt;b&gt;安&lt;/b&gt;&lt;/span&gt;&lt;/font&gt;&lt;/div&gt;&lt;div&gt;&lt;font color=&quot;#ffffff&quot;&gt;&lt;span style=&quot;font-size: 24px;&quot;&gt;&lt;b&gt;全&lt;/b&gt;&lt;/span&gt;&lt;/font&gt;&lt;/div&gt;&lt;div&gt;&lt;font color=&quot;#ffffff&quot;&gt;&lt;span style=&quot;font-size: 24px;&quot;&gt;&lt;b&gt;和&lt;/b&gt;&lt;/span&gt;&lt;/font&gt;&lt;/div&gt;&lt;div&gt;&lt;font color=&quot;#ffffff&quot;&gt;&lt;span style=&quot;font-size: 24px;&quot;&gt;&lt;b&gt;权&lt;/b&gt;&lt;/span&gt;&lt;/font&gt;&lt;/div&gt;&lt;div&gt;&lt;font color=&quot;#ffffff&quot;&gt;&lt;span style=&quot;font-size: 24px;&quot;&gt;&lt;b&gt;限&lt;/b&gt;&lt;/span&gt;&lt;/font&gt;&lt;/div&gt;&lt;div&gt;&lt;font color=&quot;#ffffff&quot;&gt;&lt;span style=&quot;font-size: 24px;&quot;&gt;&lt;b&gt;控&lt;/b&gt;&lt;/span&gt;&lt;/font&gt;&lt;/div&gt;&lt;div&gt;&lt;font color=&quot;#ffffff&quot;&gt;&lt;span style=&quot;font-size: 24px;&quot;&gt;&lt;b&gt;制&lt;/b&gt;&lt;/span&gt;&lt;/font&gt;&lt;/div&gt;&lt;/div&gt;" style="rounded=0;whiteSpace=wrap;html=1;fillColor=#6600CC;" vertex="1" parent="1">
          <mxGeometry x="640" y="62" width="58" height="502" as="geometry" />
        </mxCell>
      </root>
    </mxGraphModel>
  </diagram>
</mxfile>
